# xmcd
#
# Track frame offsets: 
#        150
#        14423
#        27245
#        42913
#        57664
#        69823
#        83153
#        96758
#        109892
#        123649
#        138621
#        152289
#
# Disc length: 2279 seconds
#
# Revision: 2
# Processed by: cddbd v1.5.2PL0 Copyright (c) Steve Scherf et al.
# Submitted via: ExactAudioCopyFreeDBPlugin 1.0
#
DISCID=9c08e50c
DTITLE=Pierre Perret - Mélangez-vous
DYEAR=2011
DGENRE=Variété française
TTITLE0=Mélangez-vous
TTITLE1=La p'tite infimière
TTITLE2=T'as pas la couleur
TTITLE3=Le séant déchaîné
TTITLE4=Malika
TTITLE5=La bonne a tout faire
TTITLE6=La philatélie
TTITLE7=Le bonheur passait
TTITLE8=La femme libérée
TTITLE9=Le tabou du sexe
TTITLE10=On s'est aimé
TTITLE11=Liberté zéro
EXTD=Intégrale 1957 - 2011
EXTT0=
EXTT1=
EXTT2=
EXTT3=
EXTT4=
EXTT5=
EXTT6=
EXTT7=
EXTT8=
EXTT9=
EXTT10=
EXTT11=
PLAYORDER=
